<svg width="216" height="69" viewBox="0 0 216 69" fill="none" xmlns="http://www.w3.org/2000/svg">
<rect y="7" width="205" height="60" fill="black"/>
<path d="M0 68.5L207 68.5L215.5 60L10 60L0 68.5Z" fill="black"/>
<path d="M0 7.05185L10 0L10 59.5L0 68.5L0 7.05185Z" fill="black"/>
<rect x="10" width="205" height="60" fill="white"/>
<path d="M61.3978 38.22H60.1778C58.8311 38.22 57.6445 38.0667 56.6178 37.76C55.5911 37.4533 54.7845 37.0733 54.1978 36.62C53.6245 36.1533 53.1511 35.6067 52.7778 34.98C52.4178 34.34 52.1778 33.7533 52.0578 33.22C51.9511 32.6733 51.8978 32.1067 51.8978 31.52V31.4H57.4778C57.6511 33.1067 58.7445 33.96 60.7578 33.96H60.9178C62.0645 33.96 62.8978 33.66 63.4178 33.06C63.9511 32.46 64.2178 31.6467 64.2178 30.62V23.12H69.8978V30.74C69.8978 31.2333 69.8711 31.7 69.8178 32.14C69.7645 32.58 69.6578 33.06 69.4978 33.58C69.3378 34.0867 69.1311 34.56 68.8778 35C68.6245 35.4267 68.2778 35.8467 67.8378 36.26C67.3978 36.66 66.8845 37 66.2978 37.28C65.7245 37.56 65.0178 37.7867 64.1778 37.96C63.3378 38.1333 62.4111 38.22 61.3978 38.22ZM82.0427 22.84H82.9427C84.2627 22.84 85.4627 22.9333 86.5427 23.12C87.636 23.2933 88.5493 23.5267 89.2827 23.82C90.0293 24.1 90.676 24.4533 91.2227 24.88C91.7827 25.2933 92.2227 25.7133 92.5427 26.14C92.8627 26.5667 93.116 27.0333 93.3027 27.54C93.5027 28.0467 93.6293 28.5067 93.6827 28.92C93.7493 29.3333 93.7827 29.7667 93.7827 30.22V30.82C93.7827 31.2733 93.7493 31.7067 93.6827 32.12C93.6293 32.5333 93.5027 33 93.3027 33.52C93.116 34.0267 92.8627 34.5 92.5427 34.94C92.236 35.3667 91.8027 35.7933 91.2427 36.22C90.6827 36.6467 90.036 37.0067 89.3027 37.3C88.5693 37.5933 87.656 37.8267 86.5627 38C85.4827 38.1867 84.276 38.28 82.9427 38.28H82.0427C80.7093 38.28 79.496 38.1867 78.4027 38C77.3227 37.8267 76.4093 37.5933 75.6627 37.3C74.9293 37.0067 74.2827 36.6467 73.7227 36.22C73.1627 35.7933 72.7227 35.3667 72.4027 34.94C72.096 34.5 71.8427 34.0267 71.6427 33.52C71.456 33 71.3293 32.5333 71.2627 32.12C71.2093 31.7067 71.1827 31.2733 71.1827 30.82V30.22C71.1827 29.7667 71.2093 29.3333 71.2627 28.92C71.3293 28.5067 71.456 28.0467 71.6427 27.54C71.8427 27.0333 72.096 26.5667 72.4027 26.14C72.7227 25.7133 73.1627 25.2933 73.7227 24.88C74.2827 24.4533 74.9293 24.1 75.6627 23.82C76.4093 23.5267 77.3227 23.2933 78.4027 23.12C79.496 22.9333 80.7093 22.84 82.0427 22.84ZM87.9027 30.64V30.36C87.9027 29.92 87.8227 29.5133 87.6627 29.14C87.5027 28.7533 87.2293 28.38 86.8427 28.02C86.4693 27.66 85.9093 27.3733 85.1627 27.16C84.416 26.9467 83.5227 26.84 82.4827 26.84C81.416 26.84 80.5093 26.9467 79.7627 27.16C79.016 27.3733 78.456 27.66 78.0827 28.02C77.7093 28.38 77.4427 28.7533 77.2827 29.14C77.136 29.5133 77.0627 29.92 77.0627 30.36V30.6C77.0627 31.04 77.1427 31.46 77.3027 31.86C77.4627 32.2467 77.7293 32.6333 78.1027 33.02C78.476 33.3933 79.036 33.6933 79.7827 33.92C80.5427 34.1467 81.4427 34.26 82.4827 34.26C83.5227 34.26 84.416 34.1533 85.1627 33.94C85.9227 33.7133 86.4893 33.4133 86.8627 33.04C87.236 32.6667 87.5027 32.2867 87.6627 31.9C87.8227 31.5 87.9027 31.08 87.9027 30.64ZM100.858 23.12V38H95.1983V23.12H100.858ZM102.776 23.12H109.136L117.776 31.58V23.12H123.416V38H117.736L108.416 28.98V38L102.776 38V23.12ZM131.249 30.22V23.12H136.949V29.78C136.949 30.2867 137.016 30.76 137.149 31.2C137.283 31.6267 137.503 32.0467 137.809 32.46C138.116 32.86 138.583 33.18 139.209 33.42C139.849 33.66 140.616 33.78 141.509 33.78C142.389 33.78 143.143 33.66 143.769 33.42C144.396 33.18 144.863 32.86 145.169 32.46C145.489 32.0467 145.716 31.6267 145.849 31.2C145.983 30.76 146.049 30.2867 146.049 29.78V23.12H151.729V30.22C151.729 30.8867 151.663 31.54 151.529 32.18C151.396 32.82 151.116 33.52 150.689 34.28C150.263 35.04 149.709 35.7 149.029 36.26C148.349 36.82 147.396 37.2933 146.169 37.68C144.943 38.0533 143.529 38.24 141.929 38.24H141.129C139.476 38.24 138.029 38.0533 136.789 37.68C135.549 37.2933 134.583 36.82 133.889 36.26C133.209 35.7 132.656 35.04 132.229 34.28C131.816 33.5067 131.549 32.8067 131.429 32.18C131.309 31.5533 131.249 30.9 131.249 30.22ZM163.7 38.28H161.88C155.826 38.28 152.8 36.52 152.8 33V32.8H159.04C159.146 34.2 160.386 34.9 162.76 34.9H162.94C163.7 34.9 164.333 34.8667 164.84 34.8C165.346 34.72 165.72 34.6133 165.96 34.48C166.2 34.3333 166.36 34.1867 166.44 34.04C166.533 33.88 166.58 33.7 166.58 33.5V33.48C166.58 33.2 166.506 32.98 166.36 32.82C166.226 32.6467 165.893 32.5 165.36 32.38C164.84 32.2467 164.08 32.1667 163.08 32.14L160.32 32.06C155.453 31.9267 153.02 30.4333 153.02 27.58V27.4C153.02 26.88 153.093 26.4133 153.24 26C153.386 25.5733 153.653 25.16 154.04 24.76C154.426 24.36 154.933 24.0267 155.56 23.76C156.186 23.4933 157.006 23.28 158.02 23.12C159.046 22.9467 160.233 22.86 161.58 22.86H163.36C169.386 22.86 172.4 24.4267 172.4 27.56V27.72L166.22 27.72C166.1 26.6667 164.9 26.14 162.62 26.14H162.42C161.486 26.14 160.766 26.2 160.26 26.32C159.753 26.4267 159.44 26.5533 159.32 26.7C159.2 26.8333 159.14 27.0133 159.14 27.24V27.26C159.14 27.4867 159.206 27.6733 159.34 27.82C159.486 27.9667 159.806 28.1 160.3 28.22C160.793 28.3267 161.486 28.3867 162.38 28.4L165.06 28.46C167.873 28.54 169.886 28.9333 171.1 29.64C172.313 30.3333 172.92 31.4333 172.92 32.94V33.22C172.92 33.7667 172.853 34.2667 172.72 34.72C172.586 35.16 172.32 35.6133 171.92 36.08C171.52 36.5333 170.986 36.92 170.32 37.24C169.666 37.5467 168.773 37.8 167.64 38C166.52 38.1867 165.206 38.28 163.7 38.28Z" fill="black"/>
</svg>
