<svg width="207" height="43" viewBox="0 0 207 43" fill="none" xmlns="http://www.w3.org/2000/svg">
<path d="M97.9392 4.25198C99.0702 4.04753 100.435 4.19303 101.621 4.4307C102.468 4.65005 103.317 4.87183 104.228 5.01145C104.314 5.06767 104.49 5.17882 104.575 5.23383C104.554 5.27175 104.516 5.34999 104.495 5.38791C105.333 6.02321 105.992 6.77963 105.635 7.46066C105.31 7.69279 104.618 7.73572 104.079 7.83012C104.191 8.15598 104.417 8.47707 104.591 8.79982C105.842 8.87738 106.737 8.47488 107.957 8.50049C108.01 8.18742 108.028 7.86963 108.137 7.56215C108.458 7.76171 108.55 7.99429 108.632 8.22198C108.962 8.25972 109.296 8.29378 109.631 8.32648C109.654 8.38228 109.696 8.49369 109.715 8.54941C115.008 8.50631 120.283 8.42314 125.579 8.38984C125.595 8.47332 125.628 8.64088 125.647 8.72469C125.783 8.7232 126.062 8.72138 126.201 8.71986C126.04 8.27671 125.889 7.832 125.731 7.38882C125.864 7.38481 126.125 7.37831 126.256 7.37567C126.382 7.72448 126.507 8.07331 126.638 8.42219C126.776 8.48634 127.053 8.61452 127.192 8.67866C127.262 8.63035 127.403 8.53544 127.473 8.48714C127.936 8.65609 127.79 8.89599 127.847 9.10913C129.324 9.08561 130.835 9.11534 132.29 9.04355C132.387 9.00479 132.582 8.9285 132.679 8.88987C132.895 8.92388 133.112 8.9581 133.328 8.99345C133.99 8.97869 134.657 8.97044 135.324 8.96196C135.366 9.12078 135.411 9.27945 135.454 9.43839C134.593 9.44159 133.728 9.44262 132.905 9.51956C132.283 9.30882 131.574 9.38561 130.911 9.38457C129.904 9.41743 128.829 9.34647 127.899 9.50605C127.342 9.58751 126.695 9.57645 126.126 9.42932C126.052 9.57239 126.353 9.88768 125.83 9.8811C123.796 9.91556 121.752 9.91717 119.72 9.95391C119.466 10.0248 119.207 10.092 118.951 10.1579C118.799 10.5657 118.05 10.8449 117.419 11.0998C117.548 11.7222 118.285 12.2966 118.705 12.8974C118.321 12.955 117.936 13.0141 117.561 13.079C117.208 13.7054 117.855 14.5482 116.688 14.9952C115.772 15.2775 115.309 15.8746 113.912 15.7964C114.699 16.0553 113.787 15.9813 113.804 15.7671C111.301 15.6935 108.988 15.0488 106.665 14.5635C106.663 14.8431 106.602 15.1187 106.535 15.393C107.374 15.4556 108.144 15.7244 108.424 16.108C108.979 16.9447 108.752 17.7839 109.055 18.6255C109.287 19.1191 108.986 19.577 108.555 19.9866C108.145 20.2537 107.259 19.9933 106.644 19.9612C106.55 20.085 106.459 20.209 106.371 20.3338C106.658 20.6613 106.852 21.0033 107.204 21.3229C108.787 21.9926 110.27 22.7207 111.495 23.5281C112.786 24.4435 113.98 25.3826 115.072 26.3416C115.211 26.5286 115.618 26.5919 115.979 26.6563C116.092 26.8496 116.205 27.0427 116.316 27.2386C116.478 27.3256 116.643 27.4124 116.811 27.5006C117.312 28.6941 117.412 29.8869 117.424 31.0699C117.361 31.6045 118.219 32.1167 118.134 32.655C118.261 32.9288 117.925 33.1403 117.818 33.3846C117.979 33.9507 118.12 34.5242 118.453 35.0874C118.693 35.5006 119.546 35.7587 120.17 36.0621C120.829 36.331 121.429 36.6952 122.315 36.7839C123.155 36.8854 123.976 37.037 124.756 37.2389C125.058 37.4824 125.11 37.7435 125.097 37.9999C123.603 38.1475 122.009 38.0994 120.457 38.1273C119.269 38.1694 118.095 37.8843 116.909 37.8351C115.777 37.8343 114.493 38.1071 113.463 37.6514C113.604 37.0021 113.39 36.3087 113.85 35.6992C113.826 35.015 113.174 34.3277 113.018 33.6388C112.873 33.5905 112.58 33.494 112.433 33.4455C112.368 32.9952 111.746 32.6006 111.435 32.1725C111.11 31.5458 110.765 30.92 110.388 30.2967C110.158 29.994 110.402 29.7118 110.796 29.5044C110.714 29.1527 110.695 28.8038 110.646 28.4543C110.453 28.2289 110.002 28.0649 109.682 27.8739C108.896 28.0468 107.731 27.9816 107.095 27.6065C105.618 26.8032 104.143 25.9997 102.655 25.2012C102.177 25.1919 101.685 25.2203 101.213 25.1379C100.619 24.9025 100.241 24.5844 99.8124 24.2948C99.4317 24.5409 99.5954 24.9099 99.1211 25.1353C98.1357 25.6641 98.092 26.4257 97.7147 27.0936C97.3981 27.5274 97.8426 28.0417 97.4686 28.4654C97.2692 28.6937 96.5859 28.7461 96.4923 29.0051C96.3479 29.2849 96.165 29.5752 95.6593 29.75C95.112 29.9417 95.0728 30.295 94.9019 30.5884C94.7463 30.859 95.2155 31.1358 95.2254 31.4119C95.1434 32.2896 94.1938 33.033 93.9871 33.8938C93.8912 34.2815 93.7122 34.7188 92.7688 34.8116C91.9825 35.7345 91.7647 36.8557 92.7504 37.8745C93.2473 38.1925 93.3535 38.5549 93.3599 38.9111C91.6244 38.9933 89.8597 39.1219 88.054 38.9143C87.5194 38.5492 87.4245 38.1137 87.3683 37.7134C87.5324 36.6572 87.877 35.6176 87.9376 34.5518C87.3183 34.336 87.3256 33.9956 87.2316 33.6986C87.019 33.1453 87.6802 32.693 88.0882 32.2326C88.1375 31.7639 87.8616 31.2639 88.2339 30.8303C88.661 30.2882 88.9776 29.7036 89.7746 29.2608C89.8216 28.8772 90.3305 28.5824 90.4479 28.2123C90.5967 27.8849 90.021 27.5604 89.997 27.2276C89.869 26.2183 89.9158 25.2173 89.909 24.2142C89.1695 23.9706 89.2395 23.5699 88.9131 23.2341C88.9688 23.0997 89.0529 22.9713 89.1645 22.8459C88.9773 22.7786 88.7926 22.7101 88.6052 22.643C88.638 22.286 88.37 21.6506 89.593 21.7531C89.2534 20.5761 87.9678 19.4472 87.851 18.2665C88.0385 18.3494 88.2235 18.4339 88.4116 18.5181L88.1875 18.1205C88.639 17.994 89.1318 17.895 89.667 17.8418C88.7492 17.7972 87.8371 17.7013 86.9231 17.6163C86.6195 17.3605 86.6418 17.0844 86.6273 16.8195C86.6557 15.9243 86.4644 15.0193 86.2178 14.1149C87.1577 13.9444 88.3037 14.068 89.2011 13.8441C88.5024 12.7172 88.0117 11.5384 88.5027 10.4447C88.88 9.5139 89.9076 8.60899 91.8851 8.26169C92.8349 8.14202 94.0348 8.00601 94.8886 8.44051C95.0519 8.35727 95.2144 8.2716 95.3777 8.18835C93.2699 6.74566 94.4257 4.59183 97.9392 4.25198ZM112.927 10.4454C112.548 10.5687 112.183 10.709 112.701 10.9198C112.506 10.9813 112.31 11.0407 112.111 11.0975C111.812 11.2224 111.069 11.2996 111.245 11.5436C111.728 11.8235 112.164 12.1185 112.547 12.4254C113.273 12.099 113.791 11.6652 114.084 11.2087C114.163 11.1628 114.323 11.0711 114.402 11.0263C114.288 10.8197 114.117 10.6183 113.873 10.429C113.559 10.435 113.242 10.4407 112.927 10.4454Z" fill="white"/>
<path d="M124.513 19.9432C125.555 19.0695 127.527 18.5677 129.639 18.5584C136.049 18.4793 142.459 18.3925 148.868 18.3132C152.005 18.3072 155.455 19.53 156.339 21.1654C147.463 21.2639 138.603 21.4063 129.727 21.4915C130.695 24.5579 131.66 27.6257 132.658 30.6933C139.464 30.6002 146.268 30.5068 153.081 30.4343C152.705 29.3359 152.389 28.2368 152.011 27.1387C148.648 27.1918 145.283 27.2384 141.912 27.2682C139.195 27.2494 136.802 26.0698 135.785 24.7936C143.018 24.6874 150.253 24.5931 157.496 24.5166C158.063 26.3956 158.711 28.2751 159.265 30.1542C159.683 31.7374 157.493 33.1636 154.524 33.3609C147.541 33.4505 140.555 33.5387 133.573 33.6282C131.484 33.6473 129.422 32.9904 127.974 32.1561C126.979 31.5658 126.561 30.8224 126.221 30.1165C125.406 27.5961 124.62 25.0738 123.806 22.5534C123.541 21.6395 123.546 20.6704 124.513 19.9432ZM166.468 18.19C167.157 18.0799 167.906 18.063 168.651 18.0579C174.578 17.9911 180.498 17.8957 186.427 17.8373C189.808 17.8684 193.236 19.3284 193.919 21.0671C194.822 23.8798 195.718 26.6938 196.608 29.5083C197.097 31.2333 194.653 32.8784 191.255 32.8924C184.736 32.9611 178.229 33.0699 171.707 33.1313C168.398 32.9861 165.394 31.4155 164.842 29.7565C163.979 27.1919 163.213 24.6232 162.364 22.0588C162.097 21.3029 162.114 20.5226 162.681 19.8603C163.329 19.0285 164.777 18.4337 166.468 18.19ZM168.362 20.9142C169.381 24.0781 170.352 27.244 171.403 30.4075C177.769 30.3349 184.132 30.2427 190.496 30.1667C189.507 26.9998 188.481 23.8328 187.477 20.6641C181.105 20.7446 174.729 20.8206 168.362 20.9142ZM4.21706 23.7763C3.80577 22.0591 6.073 20.4116 9.43541 20.3015C15.7566 20.2173 22.082 20.1361 28.4062 20.0596C31.8158 19.9982 35.1682 21.5556 35.9705 23.2618C35.5204 23.2871 35.0687 23.3074 34.6134 23.3164C27.0842 23.4087 19.5581 23.511 12.0314 23.603C12.9086 26.3668 13.7609 29.1307 14.6869 31.894C22.6752 31.7854 30.6613 31.68 38.6546 31.5881C38.9922 33.3626 36.6056 34.9717 33.1471 35.0859C27.4319 35.201 21.6907 35.2343 15.9677 35.3258C14.5494 35.3693 13.0507 35.2961 11.658 34.976C9.2559 34.4189 7.30836 33.2453 6.81864 31.9504C5.94421 29.2253 5.06791 26.5016 4.21706 23.7763ZM41.6609 21.9472C42.3358 20.7459 44.4656 19.8329 47.0367 19.8161C53.3516 19.7383 59.6673 19.6541 65.9848 19.5745C69.2854 19.5426 72.6649 20.9968 73.4338 22.677C65.1243 22.8446 56.7735 22.8995 48.4475 23.0228C48.6858 23.8892 48.9791 24.7548 49.2525 25.6221C55.4491 25.5529 61.643 25.4661 67.8363 25.3867C69.6846 25.4002 71.7104 25.6795 73.1951 26.3973C74.808 27.0288 75.7174 28.0101 76.0666 28.9614C76.4006 29.9114 76.7048 30.8664 76.7062 31.8114C76.5087 33.3445 74.0494 34.5165 71.0547 34.604C65.0432 34.7108 59.0102 34.7615 52.9931 34.8506C51.5775 34.8838 50.0746 34.7973 48.7005 34.4561C46.5316 33.9434 44.7517 32.8791 44.1838 31.7195C52.6683 31.6318 61.1465 31.5153 69.621 31.3963C69.3473 30.4735 69.042 29.5516 68.7483 28.6295C62.4675 28.6878 56.1971 28.7874 49.9183 28.8619C46.3158 28.9231 42.5789 27.2514 42.0841 25.3925C41.8458 24.2462 40.9437 23.0238 41.6609 21.9472ZM194.983 18.2279C195.778 18.2073 196.579 18.1807 197.394 18.2327C197.039 18.2864 196.67 18.3165 196.293 18.3243C196.387 18.7713 196.523 19.2177 196.677 19.6635C196.593 19.6646 196.43 19.6667 196.35 19.6692C196.21 19.211 196.072 18.7527 195.915 18.2962C195.694 18.3083 195.256 18.3346 195.038 18.3462L194.983 18.2279ZM197.824 18.1748C197.995 18.1772 198.342 18.1817 198.517 18.1839C198.888 18.5825 199.301 18.9732 199.778 19.3497C199.989 18.9614 200.077 18.5492 200.325 18.1712C200.482 18.1572 200.795 18.1279 200.952 18.114C201.037 18.6608 201.593 19.2595 201.181 19.7636C200.924 19.2815 200.812 18.7945 200.597 18.3104C200.304 18.7684 200.26 19.2795 199.822 19.7051C199.249 19.2808 198.907 18.7936 198.255 18.3945C198.359 18.8279 198.514 19.2621 198.641 19.6964L198.328 19.6824C198.168 19.1801 197.993 18.6775 197.824 18.1748Z" fill="white"/>
</svg>
