<svg width="217" height="47" viewBox="0 0 217 47" fill="none" xmlns="http://www.w3.org/2000/svg">
<path d="M0.796804 7.19337H0V6.60565H2.21085V7.19337H1.40282V9.61204H0.796804V7.19337Z" fill="#ED1B06"/>
<path d="M3.2409 7.65682V9.6121H2.63488V6.60571H3.18479L4.14993 7.93937L5.1263 6.60571H5.6762V9.6121H5.07018V7.65682L4.14993 8.92267L3.2409 7.65682Z" fill="#ED1B06"/>
<path d="M84.6782 12.6524C84.6525 11.5681 84.8485 10.4902 85.2539 9.48541C85.6592 8.48066 86.2654 7.57057 87.0348 6.81167C87.8041 6.05278 88.7201 5.46129 89.726 5.07394C90.7319 4.68659 91.8061 4.51165 92.8819 4.55999C94.4501 4.52611 95.9915 4.97265 97.3022 5.84049C98.6128 6.70834 99.6308 7.95656 100.222 9.41994H96.1926C95.7802 8.93081 95.2628 8.54238 94.6796 8.28395C94.0964 8.02551 93.4625 7.90382 92.8258 7.92805C92.208 7.90123 91.5913 8.00327 91.0144 8.22776C90.4376 8.45225 89.913 8.79436 89.4736 9.23262C89.0342 9.67088 88.6895 10.1959 88.461 10.7746C88.2326 11.3534 88.1253 11.9734 88.146 12.5959C88.1249 13.2223 88.2334 13.8463 88.4645 14.4283C88.6957 15.0103 89.0445 15.5375 89.4888 15.9764C89.9331 16.4154 90.4632 16.7565 91.0454 16.9781C91.6276 17.1997 92.2492 17.2969 92.8707 17.2637C95.205 17.2637 96.5405 16.1335 96.9108 14.2234H92.4218V11.0135H100.536C101.299 17.614 97.5505 20.6995 92.8707 20.6995C91.798 20.7441 90.7275 20.5683 89.7244 20.1829C88.7213 19.7974 87.8066 19.2104 87.036 18.4576C86.2653 17.7047 85.6549 16.8018 85.2418 15.8038C84.8288 14.8058 84.6217 13.7335 84.6333 12.6524" fill="white"/>
<path d="M102.281 12.6523C102.265 11.0418 102.725 9.46296 103.602 8.11623C104.479 6.7695 105.734 5.71563 107.207 5.08843C108.68 4.46122 110.305 4.28896 111.875 4.59352C113.446 4.89808 114.891 5.66573 116.027 6.799C117.164 7.93227 117.94 9.38004 118.258 10.9585C118.575 12.537 118.42 14.1749 117.812 15.6644C117.204 17.1539 116.169 18.4278 114.841 19.3243C113.512 20.2207 111.949 20.6994 110.35 20.6995C108.221 20.7085 106.175 19.8661 104.662 18.3573C103.149 16.8485 102.293 14.7966 102.281 12.6523V12.6523ZM114.873 12.6523C114.844 11.765 114.557 10.9058 114.046 10.1819C113.536 9.45805 112.825 8.90152 112.003 8.58177C111.18 8.26201 110.283 8.19318 109.422 8.38386C108.561 8.57454 107.775 9.01629 107.161 9.65401C106.548 10.2917 106.135 11.0972 105.973 11.9699C105.811 12.8426 105.908 13.744 106.252 14.5615C106.596 15.3791 107.171 16.0767 107.905 16.5672C108.64 17.0578 109.502 17.3197 110.384 17.3201C111.59 17.2905 112.737 16.7846 113.577 15.9115C114.416 15.0383 114.882 13.8678 114.873 12.6523Z" fill="white"/>
<path d="M119.949 12.6523C119.933 11.0418 120.393 9.46296 121.27 8.11623C122.147 6.7695 123.402 5.71563 124.875 5.08843C126.348 4.46122 127.973 4.28896 129.543 4.59352C131.114 4.89808 132.559 5.66573 133.695 6.799C134.832 7.93227 135.608 9.38004 135.926 10.9585C136.243 12.537 136.088 14.1749 135.48 15.6644C134.872 17.1539 133.837 18.4278 132.509 19.3243C131.18 20.2207 129.617 20.6994 128.018 20.6995C125.889 20.7085 123.843 19.8661 122.33 18.3573C120.817 16.8485 119.961 14.7966 119.949 12.6523V12.6523ZM132.541 12.6523C132.512 11.765 132.225 10.9058 131.714 10.1819C131.204 9.45805 130.493 8.90152 129.671 8.58177C128.848 8.26201 127.951 8.19318 127.09 8.38386C126.229 8.57454 125.443 9.01629 124.829 9.65401C124.216 10.2917 123.803 11.0972 123.641 11.9699C123.479 12.8426 123.576 13.744 123.92 14.5615C124.264 15.3791 124.839 16.0767 125.573 16.5672C126.308 17.0578 127.17 17.3197 128.052 17.3201C129.258 17.2905 130.405 16.7846 131.245 15.9115C132.084 15.0383 132.55 13.8678 132.541 12.6523" fill="white"/>
<path d="M138.496 4.87659H143.815C145.893 4.84937 147.897 5.65234 149.388 7.1097C150.879 8.56706 151.737 10.5601 151.772 12.6525C151.725 14.739 150.861 16.7222 149.369 18.1702C147.876 19.6181 145.876 20.4136 143.804 20.3832H138.485L138.496 4.87659ZM143.815 17.2412C144.407 17.2462 144.994 17.1302 145.54 16.9002C146.087 16.6702 146.581 16.331 146.993 15.9031C147.406 15.4752 147.727 14.9675 147.939 14.4107C148.151 13.8539 148.249 13.2596 148.226 12.6638C148.249 12.068 148.151 11.4737 147.939 10.9169C147.727 10.3601 147.406 9.85242 146.993 9.42451C146.581 8.99659 146.087 8.65737 145.54 8.42738C144.994 8.19738 144.407 8.08138 143.815 8.08641H141.997V17.2525L143.815 17.2412Z" fill="white"/>
<path d="M153.346 12.6523C153.321 11.5691 153.516 10.4921 153.921 9.48812C154.326 8.48416 154.931 7.57462 155.699 6.81589C156.467 6.05717 157.382 5.46543 158.386 5.07736C159.391 4.68929 160.464 4.51317 161.539 4.55992C163.107 4.52604 164.648 4.97258 165.959 5.84042C167.27 6.70827 168.288 7.95649 168.878 9.41987H164.861C164.448 8.93074 163.931 8.54231 163.348 8.28388C162.764 8.02544 162.131 7.90375 161.494 7.92798C160.876 7.90116 160.259 8.0032 159.683 8.22769C159.106 8.45218 158.581 8.79429 158.142 9.23255C157.702 9.67081 157.358 10.1958 157.129 10.7745C156.901 11.3533 156.793 11.9733 156.814 12.5958C156.784 13.2329 156.888 13.8693 157.12 14.463C157.352 15.0567 157.705 15.5943 158.158 16.0405C158.61 16.4867 159.152 16.8314 159.746 17.052C160.34 17.2725 160.974 17.3639 161.606 17.3201C163.94 17.3201 165.276 16.1899 165.646 14.2798H161.157V11.0135H169.271C170.034 17.614 166.286 20.6995 161.606 20.6995C160.533 20.744 159.463 20.5682 158.46 20.1828C157.457 19.7973 156.542 19.2103 155.771 18.4575C155.001 17.7047 154.39 16.8018 153.977 15.8037C153.564 14.8057 153.357 13.7335 153.369 12.6523" fill="white"/>
<path d="M176.196 4.87653H179.361L186.095 20.4397H182.447L181.067 17.1507H174.603L173.189 20.3832H169.541L176.196 4.87653ZM179.732 14.1217L177.779 9.43132L175.826 14.1217H179.732Z" fill="white"/>
<path d="M191.19 10.8328V20.4397H187.7V4.87653H190.876L195.758 11.5787L200.639 4.87653H203.827V20.4397H200.303V10.8328L195.758 17.1281L191.19 10.8328Z" fill="white"/>
<path d="M207.114 4.87653H217.001V8.21068H210.616V10.991H215.688V14.3252H210.616V17.1055H217.001V20.4397H207.114V4.87653Z" fill="white"/>
<path d="M96.6409 39.5854L89.032 29.9672V39.5854H85.5418V24.0223H88.5494L96.1359 33.6179V24.0223H99.6486V39.5854H96.6409Z" fill="white"/>
<path d="M107.947 24.0223H111.1L117.834 39.5967H114.187L112.806 36.3078H106.297L104.917 39.5967H101.269L107.947 24.0223ZM111.482 33.2675L109.529 28.5771L107.576 33.2675H111.482Z" fill="white"/>
<path d="M120.675 27.3564H116.691V24.0223H128.205V27.3564H124.187V39.5854H120.675V27.3564Z" fill="white"/>
<path d="M133.83 24.0223H130.34V39.5855H133.83V24.0223Z" fill="white"/>
<path d="M136.253 31.7982C136.238 30.1877 136.698 28.6089 137.575 27.2622C138.452 25.9154 139.707 24.8616 141.18 24.2344C142.653 23.6072 144.278 23.4349 145.848 23.7395C147.418 24.044 148.863 24.8117 150 25.9449C151.136 27.0782 151.912 28.526 152.23 30.1044C152.548 31.6829 152.393 33.3209 151.785 34.8104C151.176 36.2999 150.142 37.5737 148.813 38.4702C147.485 39.3667 145.922 39.8453 144.323 39.8454C142.193 39.8544 140.148 39.012 138.635 37.5032C137.122 35.9944 136.265 33.9425 136.253 31.7982V31.7982ZM148.845 31.7982C148.817 30.9109 148.529 30.0517 148.019 29.3279C147.508 28.604 146.798 28.0475 145.975 27.7277C145.153 27.4079 144.255 27.3391 143.394 27.5298C142.533 27.7205 141.747 28.1622 141.134 28.7999C140.521 29.4377 140.107 30.2431 139.946 31.1158C139.784 31.9886 139.881 32.8899 140.225 33.7075C140.568 34.525 141.143 35.2226 141.878 35.7132C142.613 36.2037 143.475 36.4656 144.356 36.4661C145.563 36.4364 146.71 35.9305 147.549 35.0574C148.389 34.1842 148.854 33.0138 148.845 31.7982Z" fill="white"/>
<path d="M165.893 39.5855L158.296 29.9673V39.5855H154.794V24.0223H157.813L165.388 33.6179V24.0223H168.901V39.5855H165.893Z" fill="white"/>
<path d="M42.6442 22.9711C42.458 22.0737 42.3417 21.163 42.2963 20.2473C42.2731 19.6098 42.2956 18.9714 42.3637 18.3372H31.5114L21.1081 27.6728H38.2113C37.1564 33.064 33.3519 36.3868 26.7643 36.3868C18.5493 36.3868 13.3869 30.4984 13.3869 23.0389C13.3869 15.5795 18.5493 9.69102 26.6408 9.69102C28.424 9.6435 30.1948 10.002 31.8212 10.7398C33.4477 11.4775 34.8878 12.5756 36.0341 13.952H43.542C44.1107 12.6888 44.8428 11.5069 45.7192 10.437C43.6708 7.2213 40.8465 4.58097 37.5102 2.7626C34.1738 0.944237 30.4343 0.00716908 26.6408 0.0389282C13.14 0.0389282 3.42126 10.1318 3.42126 23.0389C3.42126 35.9461 13.14 46.0389 26.7643 46.0389C35.6077 46.0389 43.2727 42.0945 46.7629 33.8777C44.2577 30.9388 42.807 27.2366 42.6442 23.3667C42.6442 23.2311 42.6442 23.1067 42.6442 22.9711Z" fill="#ED1B06"/>
<path d="M34.1268 23.0391C34.1268 10.1319 43.8344 0.0390625 57.3351 0.0390625C66.3132 0.0390625 75.0107 5.30589 78.1194 13.9521H66.7285C65.5816 12.5763 64.1414 11.4788 62.5151 10.741C60.8888 10.0033 59.1182 9.64446 57.3351 9.69115C49.2437 9.69115 44.0813 15.5796 44.0813 23.0391C44.0813 30.4985 49.2437 36.387 57.4586 36.387C64.0575 36.387 67.8507 33.0641 68.9056 27.673H52.3299L62.7332 18.3373H79.1855C81.3627 37.212 70.7013 46.0391 57.4586 46.0391C43.8231 46.0391 34.1156 35.9462 34.1156 23.0391" fill="#ED1B06"/>
</svg>
