<svg width="30" height="15" viewBox="0 0 30 15" fill="none" xmlns="http://www.w3.org/2000/svg">
<path d="M1.19998 0.500001C0.892205 0.495637 0.595466 0.615001 0.376256 0.831141C0.15704 1.04728 0.0335693 1.34222 0.0335693 1.65001C0.0335693 1.95779 0.15704 2.25273 0.376256 2.46887C0.595472 2.68501 0.892218 2.80438 1.19998 2.80001H28.8C29.1078 2.80438 29.4045 2.68501 29.6237 2.46887C29.8429 2.25273 29.9664 1.95779 29.9664 1.65001C29.9664 1.34222 29.8429 1.04728 29.6237 0.831141C29.4045 0.615001 29.1077 0.495638 28.8 0.500001H1.19998Z" fill="white"/>
<path d="M1.19998 12C0.892205 11.9956 0.595466 12.115 0.376256 12.3311C0.15704 12.5473 0.0335693 12.8422 0.0335693 13.15C0.0335693 13.4578 0.15704 13.7527 0.376256 13.9689C0.595472 14.185 0.892218 14.3044 1.19998 14.3H28.8C29.1078 14.3044 29.4045 14.185 29.6237 13.9689C29.8429 13.7527 29.9664 13.4578 29.9664 13.15C29.9664 12.8422 29.8429 12.5473 29.6237 12.3311C29.4045 12.115 29.1077 11.9956 28.8 12H1.19998Z" fill="white"/>
</svg>
